<?xml version="1.0" ?><svg enable-background="new 0 0 32 32" id="Stock_cut" version="1.1" viewBox="0 0 32 32" xml:space="preserve" xmlns="http://www.w3.org/2000/svg" xmlns:xlink="http://www.w3.org/1999/xlink"><desc/><g><polyline fill="none" points="1,25 1,29 31,29    31,25  " stroke="#ffffff" stroke-linejoin="round" stroke-miterlimit="10" stroke-width="2"/><path d="M16,29v-2   c0-1.105-0.895-2-2-2H1V5h13c1.105,0,2,0.895,2,2V29z" fill="none" stroke="#ffffff" stroke-linejoin="round" stroke-miterlimit="10" stroke-width="2"/><line fill="none" stroke="#ffffff" stroke-linejoin="round" stroke-miterlimit="10" stroke-width="2" x1="4" x2="13" y1="13" y2="13"/><line fill="none" stroke="#ffffff" stroke-linejoin="round" stroke-miterlimit="10" stroke-width="2" x1="4" x2="13" y1="9" y2="9"/><line fill="none" stroke="#ffffff" stroke-linejoin="round" stroke-miterlimit="10" stroke-width="2" x1="4" x2="13" y1="17" y2="17"/><line fill="none" stroke="#ffffff" stroke-linejoin="round" stroke-miterlimit="10" stroke-width="2" x1="4" x2="13" y1="21" y2="21"/><path d="M16,29v-2   c0-1.105,0.895-2,2-2h13V5H18c-1.105,0-2,0.895-2,2V29z" fill="none" stroke="#ffffff" stroke-linejoin="round" stroke-miterlimit="10" stroke-width="2"/><line fill="none" stroke="#ffffff" stroke-linejoin="round" stroke-miterlimit="10" stroke-width="2" x1="28" x2="19" y1="13" y2="13"/><line fill="none" stroke="#ffffff" stroke-linejoin="round" stroke-miterlimit="10" stroke-width="2" x1="28" x2="19" y1="9" y2="9"/><line fill="none" stroke="#ffffff" stroke-linejoin="round" stroke-miterlimit="10" stroke-width="2" x1="28" x2="19" y1="17" y2="17"/><line fill="none" stroke="#ffffff" stroke-linejoin="round" stroke-miterlimit="10" stroke-width="2" x1="28" x2="19" y1="21" y2="21"/></g></svg>